<svg xmlns="http://www.w3.org/2000/svg" width="1000" height="700" viewBox="0 0 1000 700">
  <defs>
    <linearGradient id="bg" x1="0" y1="0" x2="0" y2="1">
      <stop offset="0" stop-color="#fdf3dd"/>
      <stop offset="1" stop-color="#f0e0bf"/>
    </linearGradient>
    <linearGradient id="floor" x1="0" y1="0" x2="0" y2="1">
      <stop offset="0" stop-color="#c2ad8e"/>
      <stop offset="1" stop-color="#9b8262"/>
    </linearGradient>
    <linearGradient id="canopy" x1="0" y1="0" x2="0" y2="1">
      <stop offset="0" stop-color="#f2b705"/>
      <stop offset="1" stop-color="#d18a02"/>
    </linearGradient>
    <linearGradient id="canopy2" x1="0" y1="0" x2="0" y2="1">
      <stop offset="0" stop-color="#fff8e6"/>
      <stop offset="1" stop-color="#e9dbb5"/>
    </linearGradient>
    <linearGradient id="wood" x1="0" y1="0" x2="0" y2="1">
      <stop offset="0" stop-color="#b07a3f"/>
      <stop offset="1" stop-color="#855426"/>
    </linearGradient>
    <linearGradient id="table" x1="0" y1="0" x2="0" y2="1">
      <stop offset="0" stop-color="#a9743f"/>
      <stop offset="1" stop-color="#7c4f26"/>
    </linearGradient>
  </defs>

  <rect x="0" y="0" width="1000" height="520" fill="url(#bg)"/>
  <rect x="0" y="520" width="1000" height="180" fill="url(#floor)"/>

  <g opacity="0.28" stroke="#9b8262" stroke-width="2">
    <line x1="0" y1="580" x2="1000" y2="580"/>
    <line x1="0" y1="640" x2="1000" y2="640"/>
    <line x1="200" y1="520" x2="140" y2="700"/>
    <line x1="500" y1="520" x2="500" y2="700"/>
    <line x1="800" y1="520" x2="870" y2="700"/>
  </g>

  <g>
    <rect x="110" y="80" width="14" height="440" fill="#6b4a2a"/>
    <rect x="876" y="80" width="14" height="440" fill="#6b4a2a"/>
    <rect x="100" y="66" width="800" height="26" rx="8" fill="#5c3a1e"/>
  </g>

  <g>
    <polygon points="100,92 900,92 960,190 40,190" fill="url(#canopy)"/>
    <polygon points="100,92 220,92 190,190 40,190" fill="url(#canopy2)"/>
    <polygon points="340,92 460,92 430,190 280,190" fill="url(#canopy2)"/>
    <polygon points="580,92 700,92 670,190 520,190" fill="url(#canopy2)"/>
    <polygon points="820,92 900,92 960,190 760,190" fill="url(#canopy2)"/>
  </g>
  <g>
    <path d="M40,190 q20,-24 40,0 q20,-24 40,0 q20,-24 40,0 q20,-24 40,0 q20,-24 40,0 q20,-24 40,0 q20,-24 40,0 q20,-24 40,0 q20,-24 40,0 q20,-24 40,0 q20,-24 40,0 q20,-24 40,0 q20,-24 40,0 q20,-24 40,0 q20,-24 40,0 q20,-24 40,0 q20,-24 40,0 q20,-24 40,0 q20,-24 40,0 q20,-24 40,0 q20,-24 40,0 q20,-24 40,0 q20,-24 40,0 q20,-24 40,0 L960,190 Z" fill="#d18a02"/>
    <path d="M40,190 q20,20 40,0 q20,20 40,0 q20,20 40,0 q20,20 40,0 q20,20 40,0 q20,20 40,0 q20,20 40,0 q20,20 40,0 q20,20 40,0 q20,20 40,0 q20,20 40,0 q20,20 40,0 q20,20 40,0 q20,20 40,0 q20,20 40,0 q20,20 40,0 q20,20 40,0 q20,20 40,0 q20,20 40,0 q20,20 40,0 q20,20 40,0 q20,20 40,0 q20,20 40,0 q20,20 40,0" fill="none" stroke="#b8780a" stroke-width="4"/>
  </g>

  <g>
    <line x1="300" y1="66" x2="300" y2="150" stroke="#3b2a1d" stroke-width="3"/>
    <path d="M275,150 L325,150 L312,178 L288,178 Z" fill="#c0392b"/>
    <ellipse cx="300" cy="180" rx="14" ry="7" fill="#ffe9a3"/>
    <line x1="700" y1="66" x2="700" y2="150" stroke="#3b2a1d" stroke-width="3"/>
    <path d="M675,150 L725,150 L712,178 L688,178 Z" fill="#c0392b"/>
    <ellipse cx="700" cy="180" rx="14" ry="7" fill="#ffe9a3"/>
  </g>

  <rect x="80" y="330" width="840" height="30" rx="10" fill="url(#table)"/>
  <rect x="80" y="360" width="840" height="150" fill="url(#wood)"/>
  <rect x="80" y="360" width="840" height="14" fill="#6b4a2a"/>
  <g stroke="#855426" stroke-width="5">
    <line x1="290" y1="374" x2="290" y2="510"/>
    <line x1="500" y1="374" x2="500" y2="510"/>
    <line x1="710" y1="374" x2="710" y2="510"/>
  </g>

  <g>
    <rect x="110" y="286" width="160" height="46" rx="8" fill="#e0b374"/>
    <path d="M110,296 L270,296" stroke="#c98b52" stroke-width="3"/>
    <circle cx="140" cy="292" r="17" fill="#e74c3c"/>
    <circle cx="133" cy="285" r="6" fill="#ff9a8a" opacity="0.7"/>
    <circle cx="182" cy="290" r="18" fill="#e74c3c"/>
    <circle cx="175" cy="283" r="6" fill="#ff9a8a" opacity="0.7"/>
    <circle cx="224" cy="292" r="17" fill="#e74c3c"/>
    <circle cx="217" cy="285" r="6" fill="#ff9a8a" opacity="0.7"/>
    <path d="M182,272 q5,-11 13,-13 q-2,11 -13,13 z" fill="#3f6b23"/>
    <path d="M140,275 q4,-10 12,-12 q-2,10 -12,12 z" fill="#3f6b23"/>
  </g>

  <g>
    <rect x="300" y="284" width="160" height="48" rx="8" fill="#c98b52"/>
    <circle cx="330" cy="292" r="16" fill="#f5b73b"/>
    <circle cx="324" cy="286" r="5" fill="#ffe08a" opacity="0.85"/>
    <circle cx="372" cy="290" r="17" fill="#f5b73b"/>
    <circle cx="366" cy="284" r="5" fill="#ffe08a" opacity="0.85"/>
    <circle cx="416" cy="292" r="16" fill="#f5b73b"/>
    <circle cx="410" cy="286" r="5" fill="#ffe08a" opacity="0.85"/>
    <path d="M372,272 q5,-9 13,-10 q-3,9 -13,10 z" fill="#3f6b23"/>
  </g>

  <g>
    <rect x="490" y="286" width="170" height="46" rx="8" fill="#d9a566"/>
    <ellipse cx="525" cy="300" rx="17" ry="15" fill="#6b2d8a"/>
    <ellipse cx="518" cy="293" rx="5" ry="4" fill="#c79ae0" opacity="0.8"/>
    <ellipse cx="575" cy="298" rx="18" ry="16" fill="#6b2d8a"/>
    <ellipse cx="568" cy="291" rx="5" ry="4" fill="#c79ae0" opacity="0.8"/>
    <ellipse cx="625" cy="300" rx="17" ry="15" fill="#6b2d8a"/>
    <ellipse cx="618" cy="293" rx="5" ry="4" fill="#c79ae0" opacity="0.8"/>
  </g>

  <g>
    <rect x="690" y="286" width="200" height="46" rx="8" fill="#e0b374"/>
    <circle cx="722" cy="294" r="16" fill="#7fbf3f"/>
    <circle cx="762" cy="292" r="17" fill="#7fbf3f"/>
    <circle cx="802" cy="294" r="16" fill="#7fbf3f"/>
    <circle cx="842" cy="292" r="17" fill="#7fbf3f"/>
    <path d="M762,274 q4,-9 12,-10 q-2,9 -12,10 z" fill="#3f6b23"/>
    <path d="M842,274 q4,-9 12,-10 q-2,9 -12,10 z" fill="#3f6b23"/>
    <circle cx="802" cy="280" r="6" fill="#d9f0b0" opacity="0.7"/>
  </g>

  <g>
    <rect x="130" y="424" width="250" height="40" rx="6" fill="#8a5a2b"/>
    <ellipse cx="166" cy="432" rx="16" ry="14" fill="#f5b73b"/>
    <ellipse cx="206" cy="430" rx="17" ry="15" fill="#f5b73b"/>
    <ellipse cx="246" cy="432" rx="16" ry="14" fill="#f5b73b"/>
    <ellipse cx="286" cy="430" rx="17" ry="15" fill="#f5b73b"/>
    <ellipse cx="326" cy="432" rx="16" ry="14" fill="#f5b73b"/>
    <circle cx="206" cy="418" r="6" fill="#fff0c2" opacity="0.7"/>
  </g>

  <g>
    <rect x="420" y="424" width="250" height="40" rx="6" fill="#8a5a2b"/>
    <ellipse cx="455" cy="434" rx="15" ry="13" fill="#7fbf3f"/>
    <ellipse cx="495" cy="432" rx="16" ry="14" fill="#7fbf3f"/>
    <ellipse cx="535" cy="434" rx="15" ry="13" fill="#7fbf3f"/>
    <ellipse cx="575" cy="432" rx="16" ry="14" fill="#7fbf3f"/>
    <ellipse cx="615" cy="434" rx="15" ry="13" fill="#7fbf3f"/>
    <path d="M495,418 q4,-8 11,-9 q-2,8 -11,9 z" fill="#3f6b23"/>
  </g>

  <g>
    <rect x="720" y="424" width="180" height="40" rx="6" fill="#8a5a2b"/>
    <circle cx="752" cy="436" r="14" fill="#e74c3c"/>
    <circle cx="788" cy="434" r="15" fill="#e74c3c"/>
    <circle cx="824" cy="436" r="14" fill="#e74c3c"/>
    <circle cx="860" cy="434" r="15" fill="#e74c3c"/>
    <circle cx="788" cy="420" r="5" fill="#ff9a8a" opacity="0.7"/>
  </g>

  <g>
    <rect x="150" y="500" width="14" height="90" fill="#5c3a1e"/>
    <rect x="836" y="500" width="14" height="90" fill="#5c3a1e"/>
  </g>

  <g>
    <ellipse cx="500" cy="600" rx="380" ry="22" fill="#7c6a4d" opacity="0.32"/>
  </g>

  <g>
    <rect x="60" y="360" width="70" height="16" rx="4" fill="#6b4a2a"/>
    <rect x="68" y="376" width="54" height="120" rx="4" fill="#a9743f"/>
    <rect x="78" y="388" width="34" height="10" fill="#7c4f26"/>
    <rect x="78" y="410" width="34" height="10" fill="#7c4f26"/>
    <rect x="78" y="432" width="34" height="10" fill="#7c4f26"/>
    <rect x="78" y="454" width="34" height="10" fill="#7c4f26"/>
    <circle cx="84" cy="366" r="6" fill="#e74c3c"/>
    <circle cx="100" cy="364" r="6" fill="#f5b73b"/>
    <circle cx="116" cy="366" r="6" fill="#7fbf3f"/>
  </g>

  <g>
    <rect x="880" y="360" width="70" height="16" rx="4" fill="#6b4a2a"/>
    <rect x="888" y="376" width="54" height="120" rx="4" fill="#a9743f"/>
    <rect x="898" y="392" width="34" height="10" fill="#7c4f26"/>
    <rect x="898" y="414" width="34" height="10" fill="#7c4f26"/>
    <rect x="898" y="436" width="34" height="10" fill="#7c4f26"/>
    <circle cx="906" cy="368" r="6" fill="#e74c3c"/>
    <circle cx="922" cy="366" r="6" fill="#f5b73b"/>
  </g>

  <g>
    <rect x="470" y="360" width="60" height="14" rx="4" fill="#5c3a1e"/>
    <rect x="478" y="374" width="44" height="70" rx="4" fill="#c0392b"/>
    <rect x="484" y="366" width="32" height="8" rx="2" fill="#e6b800"/>
    <circle cx="500" cy="398" r="8" fill="#f7e08a"/>
  </g>
</svg>
