<svg xmlns="http://www.w3.org/2000/svg" viewBox="0 0 800 600" width="800" height="600">
  <defs>
    <linearGradient id="skyG" x1="0" y1="0" x2="0" y2="1">
      <stop offset="0" stop-color="#ffd9a8"/>
      <stop offset="0.45" stop-color="#ffb567"/>
      <stop offset="0.75" stop-color="#ff7e67"/>
      <stop offset="1" stop-color="#ff6b6b"/>
    </linearGradient>
    <linearGradient id="seaG" x1="0" y1="0" x2="0" y2="1">
      <stop offset="0" stop-color="#3f6a7a"/>
      <stop offset="1" stop-color="#274e60"/>
    </linearGradient>
    <linearGradient id="sandG" x1="0" y1="0" x2="0" y2="1">
      <stop offset="0" stop-color="#eccb92"/>
      <stop offset="1" stop-color="#c2925a"/>
    </linearGradient>
    <linearGradient id="woodG" x1="0" y1="0" x2="1" y2="0">
      <stop offset="0" stop-color="#6e3f17"/>
      <stop offset="0.3" stop-color="#a26834"/>
      <stop offset="0.6" stop-color="#85501f"/>
      <stop offset="1" stop-color="#5b3717"/>
    </linearGradient>
    <linearGradient id="bandG" x1="0" y1="0" x2="0" y2="1">
      <stop offset="0" stop-color="#565c66"/>
      <stop offset="0.5" stop-color="#3a4048"/>
      <stop offset="1" stop-color="#24282e"/>
    </linearGradient>
    <radialGradient id="glowG" cx="0.5" cy="0.5" r="0.5">
      <stop offset="0" stop-color="#ffe98a" stop-opacity="0.8"/>
      <stop offset="1" stop-color="#ffd76b" stop-opacity="0"/>
    </radialGradient>
    <radialGradient id="intG" cx="0.5" cy="0.4" r="0.8">
      <stop offset="0" stop-color="#2c1706"/>
      <stop offset="1" stop-color="#0c0501"/>
    </radialGradient>
    <radialGradient id="coinG" cx="0.35" cy="0.3" r="0.9">
      <stop offset="0" stop-color="#ffe98a"/>
      <stop offset="0.55" stop-color="#f4b93f"/>
      <stop offset="1" stop-color="#ce8c22"/>
    </radialGradient>
  </defs>

  <rect width="800" height="600" fill="url(#skyG)"/>

  <g>
    <g transform="translate(120 120)">
      <ellipse cx="90" cy="40" rx="60" ry="20" fill="#ffffff" opacity="0.9"/>
      <ellipse cx="140" cy="30" rx="50" ry="18" fill="#ffffff" opacity="0.9"/>
      <ellipse cx="190" cy="42" rx="55" ry="19" fill="#ffffff" opacity="0.85"/>
      <animateTransform attributeName="transform" type="translate" values="-160 0; 980 0" dur="45s" begin="-20s" repeatCount="indefinite"/>
    </g>
    <g transform="translate(560 70)">
      <ellipse cx="60" cy="30" rx="48" ry="16" fill="#ffffff" opacity="0.85"/>
      <ellipse cx="108" cy="22" rx="42" ry="15" fill="#ffffff" opacity="0.85"/>
      <ellipse cx="150" cy="34" rx="50" ry="17" fill="#ffffff" opacity="0.8"/>
      <animateTransform attributeName="transform" type="translate" values="-60 0; 880 0" dur="60s" begin="-38s" repeatCount="indefinite"/>
    </g>
  </g>

  <circle cx="400" cy="300" r="60" fill="#fff1c4">
    <animate attributeName="r" values="58;64;58" dur="3s" repeatCount="indefinite"/>
  </circle>
  <circle cx="400" cy="300" r="88" fill="#fff1c4" opacity="0.25">
    <animate attributeName="opacity" values="0.18;0.32;0.18" dur="3.5s" repeatCount="indefinite"/>
  </circle>
  <g opacity="0.55">
    <g>
      <path d="M400 216 L407 244 L400 300 L393 244 Z" fill="#ffdf9e"/>
      <path d="M318 258 L344 268 L400 300 L344 332 Z" fill="#ffdf9e"/>
      <path d="M452 332 L462 306 L480 300 L462 294 Q456 316 452 332 Z" fill="#ffdf9e" transform="rotate(180 451 314)"/>
      <path d="M446 268 L458 244 Q400 168 400 160 V220 Q420 244 446 268 Z" fill="#ffdf9e"/>
      <path d="M354 332 L342 356 Q400 432 400 440 V380 Q380 356 354 332 Z" fill="#ffdf9e"/>
      <animateTransform attributeName="transform" type="rotate" values="0 400 300; 360 400 300" dur="40s" repeatCount="indefinite"/>
    </g>
  </g>

  <rect x="0" y="300" width="800" height="110" fill="url(#seaG)"/>
  <g>
    <g opacity="0.55">
      <path d="M0 318 Q50 310 100 318 T200 318 T300 318 T400 318 T500 318 T600 318 T700 318 T800 318" fill="none" stroke="#8fc1d1" stroke-width="3"/>
      <path d="M800 318 Q850 310 900 318 T1000 318 T1100 318 T1200 318 T1300 318 T1400 318 T1500 318 T1600 318" fill="none" stroke="#8fc1d1" stroke-width="3"/>
      <animateTransform attributeName="transform" type="translate" values="0 0; -800 0" dur="10s" repeatCount="indefinite"/>
    </g>
    <g opacity="0.4">
      <path d="M0 348 Q50 340 100 348 T200 348 T300 348 T400 348 T500 348 T600 348 T700 348 T800 348" fill="none" stroke="#8fc1d1" stroke-width="3"/>
      <path d="M800 348 Q850 340 900 348 T1000 348 T1100 348 T1200 348 T1300 348 T1400 348 T1500 348 T1600 348" fill="none" stroke="#8fc1d1" stroke-width="3"/>
      <animateTransform attributeName="transform" type="translate" values="0 0; -800 0" dur="14s" repeatCount="indefinite"/>
    </g>
    <g opacity="0.3">
      <path d="M0 372 Q50 365 100 372 T200 372 T300 372 T400 372 T500 372 T600 372 T700 372 T800 372" fill="none" stroke="#8fc1d1" stroke-width="3"/>
      <path d="M800 372 Q850 365 900 372 T1000 372 T1100 372 T1200 372 T1300 372 T1400 372 T1500 372 T1600 372" fill="none" stroke="#8fc1d1" stroke-width="3"/>
      <animateTransform attributeName="transform" type="translate" values="0 0; -800 0" dur="18s" repeatCount="indefinite"/>
    </g>
  </g>

  <ellipse cx="402" cy="365" rx="60" ry="7" fill="#ffdf9e">
    <animate attributeName="opacity" values="0.35;0.8;0.35" dur="2.2s" repeatCount="indefinite"/>
  </ellipse>
  <ellipse cx="402" cy="352" rx="40" ry="4" fill="#ffdf9e" opacity="0.5">
    <animate attributeName="opacity" values="0.25;0.7;0.25" dur="1.8s" repeatCount="indefinite"/>
  </ellipse>

  <rect x="0" y="410" width="800" height="190" fill="url(#sandG)"/>
  <g stroke="#b98c52" stroke-opacity="0.6" fill="none" stroke-width="2">
    <path d="M120 438 Q220 430 320 436"/>
    <path d="M620 568 Q680 562 740 566"/>
    <path d="M80 560 Q140 552 200 558"/>
  </g>

  <g>
    <circle cx="110" cy="120" r="30" fill="#f4e3b8" stroke="#6b4a1e" stroke-width="2.5"/>
    <circle cx="110" cy="120" r="21" fill="none" stroke="#6b4a1e" stroke-width="1.5"/>
    <path d="M110 102 L114 120 L110 138 L106 120 Z" fill="#d99b3f" stroke="#6b4a1e" stroke-width="1"/>
    <path d="M94 120 L110 116 L126 120 L110 124 Z" fill="#d99b3f" stroke="#6b4a1e" stroke-width="1"/>
    <g>
      <polygon points="103,114 117,114 110,100" fill="#b0473a"/>
      <polygon points="103,126 117,126 110,140" fill="#3f6a7a"/>
      <animateTransform attributeName="transform" type="rotate" values="0 110 120; 360 110 120" dur="12s" repeatCount="indefinite"/>
    </g>
    <circle cx="110" cy="120" r="4" fill="#6b4a1e"/>
  </g>

  <ellipse cx="330" cy="470" rx="200" ry="36" fill="#7c5226" opacity="0.22"/>

  <g transform="rotate(-10 320 380)">
    <path d="M208 250 C208 270 258 286 320 286 C382 286 432 270 432 250 L440 500 C440 521 387 538 320 538 C253 538 200 521 200 500 Z" fill="url(#woodG)" stroke="#4a2a10" stroke-width="3"/>
    <path d="M240 270 Q248 380 240 488" fill="none" stroke="#46240e" stroke-opacity="0.5" stroke-width="3"/>
    <path d="M270 262 Q278 380 270 508" fill="none" stroke="#46240e" stroke-opacity="0.5" stroke-width="3"/>
    <path d="M300 258 Q308 380 300 518" fill="none" stroke="#46240e" stroke-opacity="0.5" stroke-width="3"/>
    <path d="M320 258 Q328 380 320 520" fill="none" stroke="#46240e" stroke-opacity="0.5" stroke-width="3"/>
    <path d="M340 260 Q348 380 340 516" fill="none" stroke="#46240e" stroke-opacity="0.5" stroke-width="3"/>
    <path d="M370 266 Q378 380 370 506" fill="none" stroke="#46240e" stroke-opacity="0.5" stroke-width="3"/>
    <path d="M400 270 Q408 380 400 494" fill="none" stroke="#46240e" stroke-opacity="0.5" stroke-width="3"/>

    <path d="M214 310 Q320 344 426 310 L426 338 Q320 372 214 338 Z" fill="url(#bandG)" stroke="#1e232a" stroke-width="2"/>
    <path d="M212 412 Q320 446 428 412 L428 438 Q320 472 212 438 Z" fill="url(#bandG)" stroke="#1e232a" stroke-width="2"/>
    <g fill="#15181d">
      <circle cx="244" cy="324" r="2.4"/>
      <circle cx="320" cy="330" r="2.4"/>
      <circle cx="396" cy="324" r="2.4"/>
      <circle cx="244" cy="426" r="2.4"/>
      <circle cx="320" cy="432" r="2.4"/>
      <circle cx="396" cy="426" r="2.4"/>
    </g>

    <ellipse cx="320" cy="250" rx="112" ry="36" fill="url(#intG)"/>
    <ellipse cx="320" cy="258" rx="100" ry="28" fill="#000000" opacity="0.3"/>
    <circle cx="330" cy="240" r="70" fill="url(#glowG)">
      <animate attributeName="r" values="60;78;60" dur="2s" repeatCount="indefinite"/>
      <animate attributeName="opacity" values="0.35;0.7;0.35" dur="2s" repeatCount="indefinite"/>
    </circle>

    <g>
      <circle cx="288" cy="252" r="13" fill="url(#coinG)" stroke="#7a4a0f"/>
      <circle cx="316" cy="256" r="16" fill="url(#coinG)" stroke="#7a4a0f"/>
      <circle cx="348" cy="254" r="15" fill="url(#coinG)" stroke="#7a4a0f"/>
      <circle cx="376" cy="250" r="12" fill="url(#coinG)" stroke="#7a4a0f"/>
      <circle cx="300" cy="238" r="12" fill="url(#coinG)" stroke="#7a4a0f"/>
      <circle cx="332" cy="240" r="17" fill="url(#coinG)" stroke="#7a4a0f"/>
      <circle cx="362" cy="242" r="14" fill="url(#coinG)" stroke="#7a4a0f"/>
      <circle cx="320" cy="224" r="15" fill="url(#coinG)" stroke="#7a4a0f"/>
      <circle cx="346" cy="226" r="13" fill="url(#coinG)" stroke="#7a4a0f"/>
      <circle cx="296" cy="222" r="11" fill="url(#coinG)" stroke="#7a4a0f"/>
      <circle cx="322" cy="210" r="12" fill="url(#coinG)" stroke="#7a4a0f"/>
      <circle cx="290" cy="262" r="10" fill="url(#coinG)" stroke="#7a4a0f"/>
      <circle cx="378" cy="260" r="10" fill="url(#coinG)" stroke="#7a4a0f"/>
      <circle cx="348" cy="214" r="9" fill="url(#coinG)" stroke="#7a4a0f"/>
      <circle cx="304" cy="212" r="9" fill="url(#coinG)" stroke="#7a4a0f"/>
    </g>

    <path d="M208 250 C208 270 258 286 320 286 C382 286 432 270 432 250" fill="none" stroke="#c08a3e" stroke-width="12" stroke-linecap="round"/>
    <path d="M208 250 C208 270 258 286 320 286 C382 286 432 270 432 250" fill="none" stroke="#ecc890" stroke-width="3" stroke-linecap="round" opacity="0.6"/>

    <g>
      <circle cx="398" cy="262" r="11" fill="url(#coinG)" stroke="#7a4a0f"/>
      <circle cx="418" cy="274" r="10" fill="url(#coinG)" stroke="#7a4a0f"/>
      <circle cx="428" cy="292" r="10" fill="url(#coinG)" stroke="#7a4a0f"/>
      <circle cx="434" cy="312" r="9" fill="url(#coinG)" stroke="#7a4a0f"/>
      <circle cx="438" cy="334" r="9" fill="url(#coinG)" stroke="#7a4a0f"/>
      <circle cx="438" cy="356" r="9" fill="url(#coinG)" stroke="#7a4a0f"/>
      <circle cx="432" cy="378" r="9" fill="url(#coinG)" stroke="#7a4a0f"/>
      <circle cx="424" cy="398" r="9" fill="url(#coinG)" stroke="#7a4a0f"/>
      <circle cx="240" cy="272" r="10" fill="url(#coinG)" stroke="#7a4a0f"/>
      <circle cx="226" cy="292" r="10" fill="url(#coinG)" stroke="#7a4a0f"/>
      <circle cx="218" cy="314" r="9" fill="url(#coinG)" stroke="#7a4a0f"/>
      <circle cx="212" cy="338" r="9" fill="url(#coinG)" stroke="#7a4a0f"/>
    </g>
  </g>

  <path d="M100 570 C240 520 560 510 720 480 C760 478 800 480 800 480 L800 600 L60 600 C40 590 60 585 100 570 Z" fill="#d9ae72"/>
  <path d="M100 570 C240 520 560 510 720 480 C760 478 800 480 800 480 L800 600 L60 600 C40 590 60 585 100 570 Z" fill="url(#sandG)" opacity="0.45"/>
  <g stroke="#8a6a36" stroke-opacity="0.5" fill="none" stroke-width="2">
    <path d="M180 560 Q280 538 380 542"/>
    <path d="M460 568 Q560 546 660 552"/>
    <path d="M560 592 Q640 580 720 586"/>
  </g>

  <g>
    <circle cx="430" cy="490" r="12" fill="url(#coinG)" stroke="#7a4a0f"/>
    <circle cx="458" cy="498" r="14" fill="url(#coinG)" stroke="#7a4a0f"/>
    <circle cx="488" cy="506" r="15" fill="url(#coinG)" stroke="#7a4a0f"/>
    <circle cx="518" cy="514" r="14" fill="url(#coinG)" stroke="#7a4a0f"/>
    <circle cx="548" cy="522" r="12" fill="url(#coinG)" stroke="#7a4a0f"/>
    <circle cx="454" cy="516" r="11" fill="url(#coinG)" stroke="#7a4a0f"/>
    <circle cx="486" cy="524" r="12" fill="url(#coinG)" stroke="#7a4a0f"/>
    <circle cx="518" cy="530" r="11" fill="url(#coinG)" stroke="#7a4a0f"/>
    <circle cx="444" cy="508" r="10" fill="url(#coinG)" stroke="#7a4a0f"/>
    <circle cx="474" cy="488" r="11" fill="url(#coinG)" stroke="#7a4a0f"/>
    <circle cx="358" cy="478" r="10" fill="url(#coinG)" stroke="#7a4a0f"/>
    <circle cx="386" cy="486" r="12" fill="url(#coinG)" stroke="#7a4a0f"/>
    <circle cx="414" cy="482" r="11" fill="url(#coinG)" stroke="#7a4a0f"/>
    <circle cx="508" cy="492" r="10" fill="url(#coinG)" stroke="#7a4a0f"/>
    <circle cx="536" cy="508" r="10" fill="url(#coinG)" stroke="#7a4a0f"/>
    <circle cx="562" cy="534" r="10" fill="url(#coinG)" stroke="#7a4a0f"/>
    <circle cx="580" cy="546" r="9" fill="url(#coinG)" stroke="#7a4a0f"/>
    <circle cx="590" cy="502" r="9" fill="url(#coinG)" stroke="#7a4a0f"/>
    <circle cx="340" cy="488" r="9" fill="url(#coinG)" stroke="#7a4a0f"/>
    <circle cx="312" cy="498" r="9" fill="url(#coinG)" stroke="#7a4a0f"/>
    <circle cx="392" cy="500" r="9" fill="url(#coinG)" stroke="#7a4a0f"/>
    <circle cx="568" cy="512" r="9" fill="url(#coinG)" stroke="#7a4a0f"/>
  </g>

  <circle cx="470" cy="538" r="11" fill="url(#coinG)" stroke="#7a4a0f"/>
  <ellipse cx="470" cy="544" rx="13" ry="7" fill="#b98c52"/>
  <circle cx="536" cy="542" r="10" fill="url(#coinG)" stroke="#7a4a0f"/>
  <ellipse cx="536" cy="547" rx="12" ry="6" fill="#b98c52"/>

  <g>
    <g transform="translate(452 496)">
      <circle cx="0" cy="0" r="11" fill="url(#coinG)" stroke="#7a4a0f"/>
      <animateTransform attributeName="transform" type="rotate" from="0" to="540" dur="2.6s" begin="0.6s" repeatCount="indefinite" additive="sum"/>
      <animateMotion dur="2.6s" begin="0.6s" repeatCount="indefinite" path="M0 0 Q -70 -190 -6 0"/>
    </g>
    <g transform="translate(486 524)">
      <circle cx="0" cy="0" r="12" fill="url(#coinG)" stroke="#7a4a0f"/>
      <animateTransform attributeName="transform" type="rotate" from="0" to="540" dur="2.8s" begin="1.4s" repeatCount="indefinite" additive="sum"/>
      <animateMotion dur="2.8s" begin="1.4s" repeatCount="indefinite" path="M0 0 Q -90 -230 -8 0"/>
    </g>
    <g transform="translate(516 528)">
      <circle cx="0" cy="0" r="11" fill="url(#coinG)" stroke="#7a4a0f"/>
      <animateTransform attributeName="transform" type="rotate" from="0" to="-540" dur="2.4s" begin="2.2s" repeatCount="indefinite" additive="sum"/>
      <animateMotion dur="2.4s" begin="2.2s" repeatCount="indefinite" path="M0 0 Q -60 -160 -5 0"/>
    </g>
    <g transform="translate(546 522)">
      <circle cx="0" cy="0" r="10" fill="url(#coinG)" stroke="#7a4a0f"/>
      <animateTransform attributeName="transform" type="rotate" from="0" to="540" dur="3s" begin="3.4s" repeatCount="indefinite" additive="sum"/>
      <animateMotion dur="3s" begin="3.4s" repeatCount="indefinite" path="M0 0 Q -110 -270 -10 0"/>
    </g>
    <g transform="translate(428 498)">
      <circle cx="0" cy="0" r="10" fill="url(#coinG)" stroke="#7a4a0f"/>
      <animateTransform attributeName="transform" type="rotate" from="0" to="-540" dur="2.6s" begin="1.0s" repeatCount="indefinite" additive="sum"/>
      <animateMotion dur="2.6s" begin="1.0s" repeatCount="indefinite" path="M0 0 Q -50 -140 -5 0"/>
    </g>
    <g transform="translate(506 512)">
      <circle cx="0" cy="0" r="9" fill="url(#coinG)" stroke="#7a4a0f"/>
      <animateTransform attributeName="transform" type="rotate" from="0" to="540" dur="2.2s" begin="2.8s" repeatCount="indefinite" additive="sum"/>
      <animateMotion dur="2.2s" begin="2.8s" repeatCount="indefinite" path="M0 0 Q -80 -210 -7 0"/>
    </g>
  </g>

  <g>
    <g transform="translate(424 340)">
      <circle cx="0" cy="0" r="9" fill="url(#coinG)" stroke="#7a4a0f"/>
      <animateTransform attributeName="transform" type="rotate" from="0" to="360" dur="1.8s" begin="0.3s" repeatCount="indefinite" additive="sum"/>
      <animateMotion dur="1.8s" begin="0.3s" repeatCount="indefinite" path="M0 0 L 46 74"/>
    </g>
    <g transform="translate(424 356)">
      <circle cx="0" cy="0" r="9" fill="url(#coinG)" stroke="#7a4a0f"/>
      <animateTransform attributeName="transform" type="rotate" from="0" to="360" dur="2.2s" begin="1.1s" repeatCount="indefinite" additive="sum"/>
      <animateMotion dur="2.2s" begin="1.1s" repeatCount="indefinite" path="M0 0 L 26 56"/>
    </g>
  </g>

  <g>
    <path d="M705 300 Q685 390 700 470" fill="none" stroke="#8a5a2c" stroke-width="15" stroke-linecap="round"/>
    <path d="M700 286 Q638 254 606 272 Q638 276 688 292 Z" fill="#3d7a4a" stroke="#2c5a38" stroke-width="2"/>
    <path d="M700 286 Q718 240 752 226 Q738 252 720 290 Z" fill="#478c57" stroke="#2c5a38" stroke-width="2"/>
    <path d="M700 286 Q658 212 644 190 Q668 216 692 278 Z" fill="#3d7a4a" stroke="#2c5a38" stroke-width="2"/>
    <path d="M700 286 Q732 210 748 188 Q734 218 710 282 Z" fill="#478c57" stroke="#2c5a38" stroke-width="2"/>
    <path d="M700 286 Q734 302 756 334 Q742 308 708 294 Z" fill="#3d7a4a" stroke="#2c5a38" stroke-width="2"/>
    <circle cx="700" cy="294" r="7" fill="#7a5230"/>
    <circle cx="712" cy="298" r="6" fill="#8a6238"/>
    <animateTransform attributeName="transform" type="rotate" values="0 700 470; 4 700 470; -4 700 470; 0 700 470" dur="5.5s" repeatCount="indefinite"/>
  </g>

  <g fill="#ffe98a">
    <g>
      <path d="M296 150 L298 144 L302 142 L298 140 L296 134 L294 140 L290 142 L294 144 Z"/>
      <animate attributeName="opacity" values="0;1;0" dur="1.8s" begin="0.2s" repeatCount="indefinite"/>
    </g>
    <g>
      <path d="M450 150 L452 145 L455 143 L452 141 L450 136 L448 141 L445 143 L448 145 Z"/>
      <animate attributeName="opacity" values="0;1;0" dur="2.2s" begin="1.2s" repeatCount="indefinite"/>
    </g>
    <g>
      <path d="M380 150 L382 145 L385 143 L382 141 L380 136 L378 141 L375 143 L378 145 Z"/>
      <animate attributeName="opacity" values="0;1;0" dur="2s" begin="2s" repeatCount="indefinite"/>
    </g>
    <g>
      <path d="M520 132 L522 127 L525 125 L522 123 L520 118 L518 123 L515 125 L518 127 Z"/>
      <animate attributeName="opacity" values="0;1;0" dur="2.6s" begin="0.8s" repeatCount="indefinite"/>
    </g>
    <g>
      <path d="M620 280 L622 275 L625 273 L622 271 L620 266 L618 271 L615 273 L618 275 Z"/>
      <animate attributeName="opacity" values="0;1;0" dur="1.6s" begin="1.6s" repeatCount="indefinite"/>
    </g>
    <g>
      <path d="M250 160 L252 155 L255 153 L252 151 L250 146 L248 151 L245 153 L248 155 Z"/>
      <animate attributeName="opacity" values="0;1;0" dur="2.4s" begin="0.5s" repeatCount="indefinite"/>
    </g>
  </g>

  <g opacity="0.8">
    <g>
      <path d="M448 504 L452 500 M456 504 L452 508" stroke="#fff6cf" stroke-width="1.5" fill="none"/>
      <animate attributeName="opacity" values="0;1;0" dur="1.4s" begin="0.4s" repeatCount="indefinite"/>
    </g>
    <g>
      <path d="M488 520 L494 514 M500 520 L494 526" stroke="#fff6cf" stroke-width="1.5" fill="none"/>
      <animate attributeName="opacity" values="0;1;0" dur="1.6s" begin="1.5s" repeatCount="indefinite"/>
    </g>
    <g>
      <path d="M528 526 L533 521 M538 526 L533 531" stroke="#fff6cf" stroke-width="1.5" fill="none"/>
      <animate attributeName="opacity" values="0;1;0" dur="1.3s" begin="2.4s" repeatCount="indefinite"/>
    </g>
    <g>
      <path d="M368 492 L373 487 M378 492 L373 497" stroke="#fff6cf" stroke-width="1.5" fill="none"/>
      <animate attributeName="opacity" values="0;1;0" dur="1.7s" begin="1s" repeatCount="indefinite"/>
    </g>
  </g>

  <g>
    <path d="M150 500 Q170 490 188 496" fill="none" stroke="#8a6238" stroke-width="5" stroke-linecap="round"/>
    <circle cx="150" cy="500" r="4" fill="#8a6238" stroke="#4a3418" stroke-width="1.5"/>
    <circle cx="192" cy="496" r="3.5" fill="#8a6238" stroke="#4a3418" stroke-width="1.5"/>
    <path d="M196 476 L203 466 L208 478 Z" fill="#3d7a4a" stroke="#2c5a38" stroke-width="1.5"/>
    <path d="M178 470 L185 464 L188 476 Z" fill="#3d7a4a" stroke="#2c5a38" stroke-width="1.5"/>
    <path d="M196 500 L205 496 L204 506 Z" fill="#3d7a4a" stroke="#2c5a38" stroke-width="1.5"/>
  </g>
</svg>