<svg xmlns="http://www.w3.org/2000/svg" viewBox="0 0 1200 800" role="img" aria-labelledby="title desc">
  <title id="title">Fruit stall in a market</title>
  <desc id="desc">A detailed outdoor market stall with a striped canopy, wooden crates, baskets, a vendor, a customer, price signs, and colorful fruit.</desc>
  <defs>
    <linearGradient id="sky" x1="0" y1="0" x2="0" y2="1">
      <stop offset="0" stop-color="#cbeeff"/>
      <stop offset="1" stop-color="#f8f0ce"/>
    </linearGradient>
    <linearGradient id="wood" x1="0" y1="0" x2="1" y2="1">
      <stop offset="0" stop-color="#b86b35"/>
      <stop offset="0.5" stop-color="#8e4928"/>
      <stop offset="1" stop-color="#69331f"/>
    </linearGradient>
    <linearGradient id="awningShade" x1="0" y1="0" x2="0" y2="1">
      <stop offset="0" stop-color="#fff8df"/>
      <stop offset="1" stop-color="#e8d8b4"/>
    </linearGradient>
    <filter id="shadow" x="-20%" y="-20%" width="140%" height="160%">
      <feDropShadow dx="0" dy="10" stdDeviation="10" flood-color="#3b271b" flood-opacity="0.25"/>
    </filter>
    <pattern id="brick" width="70" height="36" patternUnits="userSpaceOnUse">
      <rect width="70" height="36" fill="#d6b48c"/>
      <path d="M0 1h70M0 35h70M35 1v17M0 18h70M12 18v17" fill="none" stroke="#c39a70" stroke-width="2" opacity=".55"/>
    </pattern>
    <clipPath id="leftCrateClip"><path d="M177 492h220l-17 147H194z"/></clipPath>
    <clipPath id="centerCrateClip"><path d="M415 476h270l-13 163H430z"/></clipPath>
    <clipPath id="rightCrateClip"><path d="M704 493h238l-12 146H717z"/></clipPath>
  </defs>

  <!-- Market setting -->
  <rect width="1200" height="800" fill="url(#sky)"/>
  <circle cx="1035" cy="105" r="55" fill="#ffe79a" opacity=".75"/>
  <path d="M0 270h1200v275H0z" fill="url(#brick)"/>
  <path d="M0 529h1200v271H0z" fill="#d8c39e"/>
  <path d="M0 610h1200M0 700h1200M132 529L60 800M326 529l-28 271M550 529l8 271M778 529l45 271M1000 529l91 271" fill="none" stroke="#b69d75" stroke-width="3" opacity=".55"/>
  <path d="M50 255v-92h120v92M1020 255v-105h132v105" fill="none" stroke="#725540" stroke-width="12"/>
  <path d="M33 166h154l-18-42H53zM999 154h176l-25-45h-128z" fill="#7caa62" stroke="#4f7042" stroke-width="4"/>
  <g fill="#57834b">
    <circle cx="58" cy="126" r="18"/><circle cx="88" cy="113" r="25"/><circle cx="125" cy="119" r="28"/><circle cx="157" cy="128" r="20"/>
    <circle cx="1022" cy="111" r="20"/><circle cx="1060" cy="98" r="29"/><circle cx="1105" cy="104" r="31"/><circle cx="1144" cy="116" r="22"/>
  </g>

  <!-- Stall structure -->
  <g filter="url(#shadow)">
    <rect x="142" y="245" width="16" height="437" rx="4" fill="#49352a"/>
    <rect x="953" y="245" width="16" height="437" rx="4" fill="#49352a"/>
    <path d="M112 244L184 120h747l70 124z" fill="url(#awningShade)" stroke="#4d382d" stroke-width="7"/>
    <path d="M184 120h747l25 44H158z" fill="#f7e7c5"/>
    <path d="M184 120h106l-38 124H112zM396 120h107l-7 124H358zM610 120h107l24 124H604zM824 120h107l70 124H850z" fill="#d94a3f"/>
    <path d="M112 244h889v43c-1 27-44 28-48 1-11 34-58 31-65 0-11 35-61 32-66 0-9 35-59 34-67 0-10 35-59 34-67 0-9 35-59 34-66 0-10 35-59 34-67 0-9 35-59 34-66 0-10 35-59 34-67 0-9 35-59 34-66 0-10 35-59 34-67 0-9 35-59 34-66 0-9 31-53 32-66 1-4 25-47 25-48-2z" fill="#fbefcf" stroke="#4d382d" stroke-width="6"/>
    <path d="M112 244h66v44c-8 31-54 29-66-1zm132 0h67v44c-9 35-59 34-67 0zm133 0h66v44c-9 35-59 34-66 0zm132 0h67v44c-9 35-59 34-67 0zm133 0h66v44c-9 35-59 34-66 0zm132 0h67v44c-9 35-59 34-67 0zm133 0h94v43c-1 27-44 28-48 1-6 18-27 27-46 17z" fill="#d94a3f"/>
  </g>

  <!-- Hanging sign -->
  <path d="M480 294v35M634 294v35" stroke="#4b3427" stroke-width="5"/>
  <rect x="450" y="325" width="214" height="77" rx="8" fill="#315f3d" stroke="#f6dfac" stroke-width="6"/>
  <text x="557" y="359" text-anchor="middle" fill="#fff7d7" font-family="Georgia,serif" font-size="24" font-weight="bold">FRESH FRUIT</text>
  <text x="557" y="384" text-anchor="middle" fill="#f5cc6b" font-family="Arial,sans-serif" font-size="17">LOCAL MARKET</text>

  <!-- Back shelves -->
  <rect x="183" y="386" width="729" height="22" rx="5" fill="#6d3a25"/>
  <rect x="198" y="403" width="695" height="72" fill="#9f5a30" stroke="#65351f" stroke-width="5"/>
  <path d="M320 403v72M450 403v72M581 403v72M714 403v72" stroke="#713c23" stroke-width="4"/>

  <!-- Shelf fruit -->
  <g stroke="#873723" stroke-width="2">
    <g fill="#ef5b3f"><circle cx="222" cy="397" r="18"/><circle cx="253" cy="396" r="20"/><circle cx="286" cy="398" r="18"/><circle cx="238" cy="374" r="19"/><circle cx="271" cy="373" r="18"/></g>
    <g fill="#f3be31"><circle cx="349" cy="398" r="20"/><circle cx="383" cy="396" r="21"/><circle cx="416" cy="397" r="18"/><circle cx="366" cy="371" r="18"/><circle cx="399" cy="372" r="19"/></g>
    <g fill="#6aa544"><circle cx="483" cy="398" r="20"/><circle cx="516" cy="396" r="19"/><circle cx="549" cy="398" r="20"/><circle cx="500" cy="371" r="18"/><circle cx="533" cy="371" r="18"/></g>
    <g fill="#e96e30"><circle cx="614" cy="398" r="21"/><circle cx="648" cy="397" r="19"/><circle cx="681" cy="397" r="20"/><circle cx="631" cy="371" r="18"/><circle cx="664" cy="371" r="18"/></g>
    <g fill="#8e4fa0"><circle cx="750" cy="396" r="12"/><circle cx="773" cy="398" r="13"/><circle cx="796" cy="396" r="12"/><circle cx="819" cy="398" r="13"/><circle cx="762" cy="376" r="12"/><circle cx="785" cy="377" r="13"/><circle cx="808" cy="376" r="12"/><circle cx="785" cy="357" r="12"/></g>
  </g>
  <g fill="#3e7c3f"><path d="M235 356q10-20 27-9-8 17-27 9z"/><path d="M367 351q13-17 28-5-10 15-28 5z"/><path d="M501 351q12-18 28-7-9 17-28 7z"/><path d="M633 351q11-18 27-6-9 16-27 6z"/></g>

  <!-- Counter -->
  <path d="M155 452h820l-28 206H179z" fill="url(#wood)" stroke="#59301f" stroke-width="7"/>
  <path d="M169 466h792M176 522h778M184 579h762" stroke="#d08a4e" stroke-width="4" opacity=".65"/>
  <path d="M286 456l-13 199M411 456l-8 199M538 456v199M665 456l8 199M792 456l14 199M916 456l15 199" stroke="#63321f" stroke-width="5"/>

  <!-- Front crates and fruit -->
  <path d="M177 492h220l-17 147H194z" fill="#bd7541" stroke="#5f3825" stroke-width="7"/>
  <g clip-path="url(#leftCrateClip)" fill="#d84532" stroke="#963123" stroke-width="2">
    <circle cx="209" cy="507" r="24"/><circle cx="250" cy="500" r="25"/><circle cx="293" cy="507" r="25"/><circle cx="337" cy="500" r="24"/><circle cx="379" cy="510" r="25"/>
    <circle cx="225" cy="540" r="25"/><circle cx="270" cy="538" r="25"/><circle cx="315" cy="541" r="25"/><circle cx="360" cy="540" r="25"/>
  </g>
  <path d="M188 548h199M194 600h187" stroke="#744126" stroke-width="9"/>
  <path d="M415 476h270l-13 163H430z" fill="#c78649" stroke="#5f3825" stroke-width="7"/>
  <g clip-path="url(#centerCrateClip)" fill="#ffbd2e" stroke="#d78222" stroke-width="2">
    <ellipse cx="442" cy="501" rx="28" ry="22"/><ellipse cx="489" cy="496" rx="29" ry="23"/><ellipse cx="538" cy="501" rx="29" ry="23"/><ellipse cx="587" cy="496" rx="29" ry="23"/><ellipse cx="636" cy="500" rx="29" ry="23"/><ellipse cx="674" cy="501" rx="28" ry="22"/>
    <ellipse cx="463" cy="535" rx="29" ry="23"/><ellipse cx="514" cy="535" rx="29" ry="23"/><ellipse cx="564" cy="535" rx="29" ry="23"/><ellipse cx="614" cy="535" rx="29" ry="23"/><ellipse cx="660" cy="536" rx="28" ry="23"/>
  </g>
  <path d="M422 551h257M427 601h247" stroke="#744126" stroke-width="9"/>
  <path d="M704 493h238l-12 146H717z" fill="#ba7440" stroke="#5f3825" stroke-width="7"/>
  <g clip-path="url(#rightCrateClip)" fill="#73a847" stroke="#497a32" stroke-width="2">
    <path d="M719 520q16-47 47-9t43-5q16-36 39 5t45-4q26-28 42 20l-7 41H716z"/>
    <ellipse cx="739" cy="548" rx="30" ry="23"/><ellipse cx="790" cy="544" rx="31" ry="24"/><ellipse cx="842" cy="548" rx="31" ry="24"/><ellipse cx="895" cy="544" rx="30" ry="24"/>
  </g>
  <path d="M710 551h227M715 600h218" stroke="#744126" stroke-width="9"/>

  <!-- Price cards -->
  <g font-family="Arial,sans-serif" font-weight="bold" text-anchor="middle">
    <g transform="rotate(-3 290 469)"><rect x="244" y="438" width="92" height="48" rx="4" fill="#fff3c9" stroke="#5b412d" stroke-width="3"/><text x="290" y="459" font-size="13" fill="#4e3728">APPLES</text><text x="290" y="478" font-size="17" fill="#c43b2f">$2 / lb</text></g>
    <g transform="rotate(2 550 459)"><rect x="499" y="427" width="102" height="50" rx="4" fill="#fff3c9" stroke="#5b412d" stroke-width="3"/><text x="550" y="449" font-size="13" fill="#4e3728">ORANGES</text><text x="550" y="468" font-size="17" fill="#c46b24">$3 / lb</text></g>
    <g transform="rotate(-2 820 471)"><rect x="773" y="439" width="94" height="49" rx="4" fill="#fff3c9" stroke="#5b412d" stroke-width="3"/><text x="820" y="461" font-size="13" fill="#4e3728">PEARS</text><text x="820" y="480" font-size="17" fill="#558338">$2 / lb</text></g>
  </g>

  <!-- Vendor behind stall -->
  <g>
    <path d="M900 445q-8-71 43-94 55 25 50 102z" fill="#3c6f80" stroke="#294b58" stroke-width="4"/>
    <circle cx="945" cy="330" r="40" fill="#bd7955" stroke="#68432f" stroke-width="4"/>
    <path d="M908 325q1-55 42-52 35 2 39 50-13-20-31-22-21 24-50 24z" fill="#47342c"/>
    <path d="M915 314q31-30 72-3" fill="none" stroke="#f0d5a7" stroke-width="10"/>
    <ellipse cx="930" cy="331" rx="4" ry="5" fill="#2d211c"/><ellipse cx="960" cy="331" rx="4" ry="5" fill="#2d211c"/>
    <path d="M934 350q12 9 24 0" fill="none" stroke="#713c32" stroke-width="3" stroke-linecap="round"/>
    <path d="M911 409q-41 15-69 47" fill="none" stroke="#bd7955" stroke-width="18" stroke-linecap="round"/>
    <path d="M838 446l-18 17" fill="none" stroke="#bd7955" stroke-width="15" stroke-linecap="round"/>
  </g>

  <!-- Baskets at ground -->
  <g stroke="#67402a" stroke-width="5">
    <path d="M73 621q60-29 120 0l-15 117H89z" fill="#b9763f"/>
    <path d="M82 648h102M87 682h92M91 715h85" fill="none" stroke="#e0a35e"/>
    <path d="M91 623q10-69 83 0" fill="none" stroke-width="10"/>
    <g fill="#7950a1" stroke="#573b75" stroke-width="2"><circle cx="103" cy="638" r="18"/><circle cx="134" cy="633" r="19"/><circle cx="165" cy="640" r="18"/><circle cx="118" cy="661" r="18"/><circle cx="151" cy="661" r="18"/></g>
    <path d="M967 628q69-30 138 0l-17 109H987z" fill="#bc7942"/>
    <path d="M978 654h118M983 688h108M988 717h99" fill="none" stroke="#e0a35e"/>
    <path d="M990 629q10-75 92 0" fill="none" stroke-width="10"/>
    <g fill="#edb82c" stroke="#b5781d" stroke-width="2"><path d="M993 641q17-28 35-1l-9 38z"/><path d="M1022 638q19-30 37 0l-11 40z"/><path d="M1052 642q18-28 36 0l-12 38z"/></g>
  </g>

  <!-- Customer and shopping bag -->
  <g>
    <ellipse cx="1103" cy="744" rx="72" ry="14" fill="#826c50" opacity=".25"/>
    <path d="M1060 471q-44 60-29 151l94 2q11-101-23-153z" fill="#e3a23b" stroke="#805522" stroke-width="5"/>
    <circle cx="1081" cy="421" r="43" fill="#8c543d" stroke="#54352a" stroke-width="4"/>
    <path d="M1039 422q-2-54 39-57 46-4 52 56-26-28-55-30-11 24-36 31z" fill="#242326"/>
    <path d="M1045 497q-40 6-72-25" fill="none" stroke="#8c543d" stroke-width="19" stroke-linecap="round"/>
    <path d="M973 472l-31-16" fill="none" stroke="#8c543d" stroke-width="15" stroke-linecap="round"/>
    <path d="M1051 620l-11 104M1110 621l23 103" stroke="#384f65" stroke-width="26" stroke-linecap="round"/>
    <path d="M1019 730h47M1112 730h49" stroke="#392d29" stroke-width="16" stroke-linecap="round"/>
    <path d="M1124 522h57l9 115h-76z" fill="#efe2ba" stroke="#74583c" stroke-width="4"/>
    <path d="M1127 531q18-51 50 0" fill="none" stroke="#74583c" stroke-width="5"/>
    <circle cx="1140" cy="554" r="15" fill="#d84b37"/><circle cx="1163" cy="558" r="14" fill="#eca932"/><path d="M1140 538q8-12 16-3" fill="none" stroke="#4f813d" stroke-width="4"/>
  </g>

  <!-- Small foreground details -->
  <g fill="#557f3f"><path d="M49 742q18-45 32 0-4-54 22-57-2 43-23 66z"/><path d="M920 744q9-47 31-36-4 23-22 43 30-37 42-12-20 18-51 22z"/></g>
  <g fill="#f7e4a8" opacity=".8"><ellipse cx="435" cy="722" rx="7" ry="3"/><ellipse cx="469" cy="753" rx="9" ry="4"/><ellipse cx="720" cy="701" rx="8" ry="3"/><ellipse cx="755" cy="757" rx="6" ry="3"/></g>
</svg>
